<svg xmlns="http://www.w3.org/2000/svg" width="76" height="23" viewBox="0 0 76 23">
  <path d="M5.86,22.28L.03,.52l-.03-.1C0,.26,.11,.17,.32,.17h1.73c.21,0,.33,.1,.35,.29L7.07,18.76s.04,.06,.06,.06,.04-.02,.06-.06L11.87,.46c.04-.19,.16-.29,.35-.29h1.66c.11,0,.19,.03,.24,.1s.07,.15,.05,.26l-5.82,21.76c-.04,.19-.16,.29-.35,.29h-1.79c-.19,0-.31-.1-.35-.29ZM18.41,3c-.31-.31-.46-.71-.46-1.2s.16-.86,.46-1.17c.31-.31,.71-.46,1.2-.46s.89,.15,1.18,.45c.3,.3,.45,.69,.45,1.18s-.15,.89-.45,1.2c-.3,.31-.69,.46-1.18,.46s-.89-.16-1.2-.46Zm.08,19.25V6.7c0-.21,.11-.32,.32-.32h1.63c.21,0,.32,.11,.32,.32v15.55c0,.21-.11,.32-.32,.32h-1.63c-.21,0-.32-.11-.32-.32Zm8.48-.7c-1-.79-1.5-1.8-1.5-3.04v-.29c0-.21,.11-.32,.32-.32h1.54c.21,0,.32,.08,.32,.26v.29c0,.68,.31,1.27,.93,1.78,.62,.5,1.41,.75,2.37,.75s1.69-.25,2.26-.74c.56-.49,.85-1.11,.85-1.86,0-.53-.16-.98-.48-1.34-.33-.37-.73-.66-1.18-.86-.47-.21-1.12-.46-1.95-.74-1-.34-1.83-.68-2.5-1.02-.66-.34-1.24-.83-1.68-1.42-.46-.61-.69-1.38-.69-2.32,0-1.36,.49-2.45,1.46-3.25,.97-.8,2.25-1.2,3.82-1.2s2.92,.42,3.89,1.25c.97,.83,1.46,1.9,1.46,3.2v.06c0,.21-.11,.32-.32,.32h-1.5c-.21,0-.32-.07-.32-.22v-.22c0-.73-.29-1.33-.88-1.81s-1.36-.72-2.32-.72-1.69,.23-2.24,.69c-.56,.46-.83,1.05-.83,1.78s.28,1.31,.85,1.7,1.46,.79,2.67,1.22c1.02,.34,1.88,.68,2.56,1.02,.68,.34,1.28,.83,1.74,1.42,.48,.61,.72,1.39,.72,2.35,0,1.36-.49,2.45-1.46,3.26-.97,.81-2.28,1.22-3.92,1.22s-2.97-.4-3.97-1.18ZM40.68,3c-.31-.31-.46-.71-.46-1.2s.15-.86,.46-1.17c.31-.31,.71-.46,1.2-.46s.88,.15,1.18,.45c.3,.3,.45,.69,.45,1.18s-.15,.89-.45,1.2c-.3,.31-.69,.46-1.18,.46s-.89-.16-1.2-.46Zm.08,19.25V6.7c0-.21,.11-.32,.32-.32h1.63c.21,0,.32,.11,.32,.32v15.55c0,.21-.11,.32-.32,.32h-1.63c-.21,0-.32-.11-.32-.32Zm9.28-.69c-1-.84-1.61-1.98-1.82-3.41-.15-.98-.22-2.22-.22-3.71s.08-2.69,.22-3.65c.19-1.43,.79-2.56,1.81-3.41s2.3-1.26,3.86-1.26,2.78,.42,3.79,1.26,1.62,1.97,1.81,3.38c.15,1.02,.22,2.25,.22,3.68s-.08,2.69-.22,3.71c-.21,1.43-.82,2.57-1.82,3.41-1,.84-2.27,1.26-3.81,1.26s-2.81-.42-3.81-1.26Zm6.13-1.57c.63-.57,1.01-1.32,1.14-2.26,.08-.83,.13-1.92,.13-3.26s-.04-2.48-.13-3.26c-.13-.94-.51-1.69-1.14-2.26-.63-.56-1.4-.85-2.32-.85s-1.69,.28-2.32,.85-1.01,1.32-1.14,2.26c-.08,.79-.13,1.88-.13,3.26s.04,2.48,.13,3.26c.13,.94,.51,1.69,1.14,2.26,.63,.57,1.4,.85,2.32,.85s1.69-.28,2.32-.85Zm18.08-12.42c.86,.95,1.3,2.24,1.3,3.89v10.78c0,.21-.11,.32-.32,.32h-1.63c-.21,0-.32-.11-.32-.32V11.79c0-1.11-.29-1.99-.86-2.66s-1.36-.99-2.34-.99-1.81,.34-2.42,1.01-.91,1.57-.91,2.7v10.4c0,.21-.11,.32-.32,.32h-1.63c-.21,0-.32-.11-.32-.32V6.7c0-.21,.11-.32,.32-.32h1.63c.21,0,.32,.11,.32,.32v1.18s.02,.07,.05,.1,.07,.01,.11-.03c.41-.58,.97-1.05,1.62-1.34,.65-.3,1.38-.45,2.19-.45,1.49,0,2.67,.48,3.54,1.42Z" fill="#111" fill-rule="evenodd"/>
</svg>