
<svg width="70" height="21" viewBox="0 0 70 21" xmlns="http://www.w3.org/2000/svg">
    <path d="M5.355,20.361L.029,.463l-.029-.088C0,.22,.098,.141,.293,.141H1.873c.195,0,.302,.088,.322,.263L6.467,17.142c.019,.039,.039,.059,.059,.059s.039-.019,.059-.059L10.856,.405c.039-.176,.146-.263,.322-.263h1.522c.098,0,.171,.029,.219,.088s.064,.137,.044,.234L7.637,20.361c-.039,.176-.146,.263-.322,.263h-1.639c-.176,0-.283-.088-.322-.263ZM16.837,2.731c-.283-.283-.424-.649-.424-1.097,0-.43,.142-.786,.424-1.068,.283-.283,.649-.424,1.097-.424s.809,.137,1.083,.41c.273,.273,.41,.634,.41,1.083s-.137,.814-.41,1.097c-.273,.283-.634,.424-1.083,.424s-.814-.142-1.097-.424Zm.073,17.601V6.111c0-.195,.098-.293,.293-.293h1.492c.195,0,.293,.098,.293,.293v14.221c0,.195-.098,.293-.293,.293h-1.492c-.195,0-.293-.098-.293-.293Zm7.751-.644c-.917-.722-1.375-1.649-1.375-2.78v-.263c0-.195,.098-.293,.293-.293h1.405c.195,0,.293,.078,.293,.234v.263c0,.625,.283,1.166,.849,1.624,.566,.458,1.288,.688,2.165,.688,.859,0,1.545-.224,2.063-.673,.517-.448,.775-1.015,.775-1.697,0-.487-.146-.897-.439-1.229-.301-.337-.67-.607-1.083-.79-.43-.195-1.024-.42-1.785-.673-.917-.312-1.678-.625-2.282-.936-.604-.312-1.13-.757-1.536-1.302-.42-.556-.629-1.263-.629-2.121,0-1.248,.444-2.239,1.331-2.97,.887-.732,2.053-1.097,3.497-1.097,1.482,0,2.667,.38,3.555,1.141,.887,.761,1.331,1.737,1.331,2.926v.059c0,.195-.098,.293-.293,.293h-1.375c-.195,0-.293-.069-.293-.205v-.205c0-.663-.268-1.214-.805-1.653s-1.244-.658-2.121-.658c-.859,0-1.541,.21-2.048,.629-.508,.42-.761,.96-.761,1.624,0,.683,.259,1.2,.775,1.551s1.331,.722,2.443,1.112c.936,.312,1.716,.625,2.341,.936,.622,.31,1.167,.755,1.595,1.302,.439,.556,.658,1.273,.658,2.151,0,1.248-.444,2.243-1.331,2.985-.887,.741-2.082,1.112-3.585,1.112s-2.711-.361-3.628-1.083ZM37.196,2.731c-.283-.283-.424-.649-.424-1.097,0-.43,.142-.786,.424-1.068,.283-.283,.649-.424,1.097-.424s.809,.137,1.083,.41c.273,.273,.41,.634,.41,1.083s-.137,.814-.41,1.097c-.273,.283-.634,.424-1.083,.424s-.814-.142-1.097-.424Zm.073,17.601V6.111c0-.195,.098-.293,.293-.293h1.492c.195,0,.293,.098,.293,.293v14.221c0,.195-.098,.293-.293,.293h-1.492c-.195,0-.293-.098-.293-.293Zm8.482-.629c-.917-.771-1.472-1.81-1.668-3.116-.137-.897-.205-2.029-.205-3.394,0-1.346,.069-2.458,.205-3.336,.176-1.308,.727-2.346,1.653-3.116s2.102-1.156,3.526-1.156c1.385,0,2.541,.385,3.468,1.156s1.478,1.8,1.653,3.087c.137,.936,.205,2.057,.205,3.365,0,1.326-.069,2.458-.205,3.394-.195,1.308-.751,2.346-1.668,3.116-.917,.771-2.078,1.156-3.482,1.156s-2.565-.385-3.482-1.156Zm5.604-1.434c.576-.517,.922-1.204,1.039-2.063,.078-.761,.117-1.756,.117-2.985,0-1.268-.039-2.263-.117-2.985-.117-.859-.464-1.545-1.039-2.063-.576-.517-1.283-.775-2.121-.775s-1.545,.259-2.121,.775-.922,1.204-1.039,2.063c-.078,.722-.117,1.716-.117,2.985s.039,2.263,.117,2.985c.117,.859,.464,1.545,1.039,2.063,.576,.517,1.283,.775,2.121,.775s1.545-.259,2.121-.775Zm16.529-11.354c.79,.869,1.185,2.053,1.185,3.555v9.861c0,.195-.098,.293-.293,.293h-1.492c-.195,0-.293-.098-.293-.293V10.763c0-1.015-.263-1.824-.79-2.429s-1.239-.907-2.136-.907c-.917,0-1.653,.307-2.209,.922s-.834,1.438-.834,2.473v9.51c0,.195-.098,.293-.293,.293h-1.492c-.195,0-.293-.098-.293-.293V6.111c0-.195,.098-.293,.293-.293h1.492c.195,0,.293,.098,.293,.293v1.083c0,.039,.015,.069,.044,.088s.064,.009,.102-.029c.375-.533,.885-.958,1.478-1.229,.594-.273,1.263-.41,2.004-.41,1.365,0,2.443,.434,3.233,1.302Z" fill="#111" fill-rule="evenodd"/>
</svg>